<svg width="102" height="24" viewBox="0 0 102 24" xmlns="http://www.w3.org/2000/svg"><title>1933F0CE-3BD0-4392-99FF-A5FD94682861</title><g fill="none" fill-rule="evenodd"><path d="M65.222 22.482l-2.339.003c-.43 0-.78-.34-.78-.762L62.09 9.646c-.003-3.111-2.495-5.742-5.675-5.832-3.304-.092-6.021 2.511-6.018 5.722l.013 12.199a.771.771 0 0 1-.778.763l-2.34.002a.77.77 0 0 1-.78-.762L46.5 9.7C46.495 4.481 50.711.106 56.046.002c5.458-.107 9.936 4.202 9.941 9.518L66 21.72a.77.77 0 0 1-.778.762M89.992 4c-4.412.004-7.997 3.597-7.992 8.008.004 4.411 3.597 7.996 8.008 7.992 4.41-.004 7.996-3.597 7.991-8.008-.004-4.41-3.596-7.996-8.007-7.992m.02 20c-6.617.007-12.005-5.37-12.012-11.988C77.993 5.396 83.37.007 89.987 0 96.604-.007 101.993 5.371 102 11.988c.007 6.617-5.371 12.005-11.988 12.012M73.79 23.56l-2.366.002a.793.793 0 0 1-.789-.798L70.614 1.19c0-.44.352-.799.787-.8L73.766.39c.436 0 .789.357.789.798l.022 21.573c0 .44-.352.799-.788.8M20.745.444l-3.732.004c-.249 0-.484.12-.632.322l-5.803 7.926L4.758.782a.784.784 0 0 0-.632-.321L.394.465a.4.4 0 0 0-.315.638l8.046 10.942-8.02 10.952a.4.4 0 0 0 .317.638l3.733-.004c.248 0 .483-.12.632-.323l5.797-7.918 5.814 7.906c.15.203.384.322.633.322l3.732-.004a.4.4 0 0 0 .316-.638L13.037 12.04l8.025-10.959a.4.4 0 0 0-.317-.637" fill="#1D2533"/><path d="M29.361 5.3c3.084-2.01 7.043-1.56 9.619.853l-12.84 8.372c-1.099-3.376.138-7.215 3.221-9.226m11.91 10.068a.786.786 0 0 0-.694.423 7.908 7.908 0 0 1-2.685 2.948c-3.085 2.01-7.044 1.56-9.62-.854L43.975 7.647a.805.805 0 0 0 .236-1.104l-.64-1.008c-3.628-5.717-11.282-7.26-16.81-3.274-4.935 3.56-6.408 10.439-3.372 15.753 3.399 5.949 10.995 7.762 16.635 4.084a11.862 11.862 0 0 0 4.79-6.207.4.4 0 0 0-.375-.528l-3.168.004" fill="#1D2533"/><path d="M95.163 11.956c.003 2.9-2.315 5.253-5.177 5.256-2.86.003-5.183-2.346-5.186-5.246-.003-2.9 2.315-5.253 5.176-5.256 2.861-.003 5.184 2.346 5.187 5.246" fill="#038DFF"/></g></svg>